<svg width="40" height="41" viewBox="0 0 40 41" fill="none" xmlns="http://www.w3.org/2000/svg">
<path opacity="0.941" fill-rule="evenodd" clip-rule="evenodd" d="M6.36702 1.08593C10.5923 1.04754 14.8111 1.0866 19.0233 1.20311C19.1443 1.29796 19.2354 1.41514 19.2967 1.55468C19.3227 2.90884 19.3488 4.26301 19.3748 5.61718C20.707 7.3399 22.009 9.08468 23.2811 10.8516C23.3201 12.2576 23.3332 13.6638 23.3201 15.0703C25.0436 15.1933 26.5801 15.7923 27.9295 16.8672C28.0104 16.4241 27.9973 15.9814 27.8905 15.5391C27.5887 14.3732 27.224 13.2273 26.7967 12.1016C26.2711 10.2446 26.4664 8.47374 27.3826 6.78905C27.8177 6.96677 28.2083 7.20114 28.5545 7.49218C28.0122 8.55022 27.8169 9.66999 27.9686 10.8516C28.312 12.1163 28.7026 13.3663 29.1405 14.6016C29.2487 15.0126 29.3268 15.4292 29.3748 15.8516C33.6236 14.0949 36.6444 15.3449 38.4373 19.6016C40.0552 23.8973 39.5083 27.8817 36.7967 31.5547C36.1207 32.3355 35.3525 32.9996 34.492 33.5469C35.4552 34.2051 36.3537 34.9473 37.1873 35.7734C38.5337 37.5618 38.13 38.7727 35.9764 39.4062C34.4298 39.7158 32.8673 39.859 31.2889 39.8359C27.0596 39.7639 22.8669 39.3342 18.7108 38.5469C16.599 38.1691 14.5938 37.492 12.6951 36.5156C11.5238 35.839 10.8076 34.8363 10.5467 33.5078C9.32866 34.9558 7.88334 36.1147 6.21077 36.9844C4.38546 37.6259 2.94015 37.1441 1.87483 35.539C1.45557 34.4608 1.61182 33.4712 2.34358 32.5703C2.76549 32.1612 3.22122 31.7966 3.71077 31.4765C2.817 31.1017 2.02273 30.5808 1.32795 29.914C0.464212 28.8165 0.360046 27.6447 1.01545 26.3984C1.24983 26.0599 1.53629 25.7734 1.87483 25.539C1.90087 20.6693 1.92691 15.7994 1.95295 10.9297C3.21604 9.13374 4.51813 7.36293 5.8592 5.61718C5.88524 4.28905 5.91129 2.96093 5.93733 1.6328C6.01063 1.39081 6.15386 1.20851 6.36702 1.08593ZM7.30452 2.49218C10.8462 2.49218 14.3879 2.49218 17.9295 2.49218C17.9295 3.35155 17.9295 4.21093 17.9295 5.0703C14.3879 5.0703 10.8462 5.0703 7.30452 5.0703C7.30452 4.21093 7.30452 3.35155 7.30452 2.49218ZM6.99202 6.47655C10.4036 6.46353 13.8151 6.47655 17.2264 6.51561C16.2368 7.8177 15.2473 9.11975 14.2576 10.4219C10.8462 10.474 7.43473 10.474 4.02327 10.4219C5.02977 9.11639 6.01935 7.80127 6.99202 6.47655ZM18.5545 7.02343C19.4651 8.12421 20.3505 9.25702 21.2108 10.4219C19.492 10.474 17.7733 10.474 16.0545 10.4219C16.935 9.32054 17.7683 8.18775 18.5545 7.02343ZM3.32014 11.8672C6.86181 11.8672 10.4035 11.8672 13.9451 11.8672C13.9451 13.1693 13.9451 14.4713 13.9451 15.7734C10.4035 15.7734 6.86181 15.7734 3.32014 15.7734C3.32014 14.4713 3.32014 13.1693 3.32014 11.8672ZM15.3514 11.8672C17.5389 11.8672 19.7264 11.8672 21.9139 11.8672C21.9139 12.9869 21.9139 14.1068 21.9139 15.2266C20.7389 15.4954 19.7623 16.0943 18.9842 17.0234C17.1072 19.6092 16.3389 22.4998 16.6795 25.6953C16.2368 25.6953 15.7941 25.6953 15.3514 25.6953C15.3514 21.0859 15.3514 16.4766 15.3514 11.8672ZM22.5389 16.4766C23.9306 16.4066 25.2066 16.7581 26.367 17.5312C26.8634 17.8721 27.3583 18.2107 27.8514 18.5469C27.7076 18.913 27.6035 19.2906 27.5389 19.6797C26.9676 19.5514 26.525 19.2389 26.2108 18.7422C25.7915 18.9514 25.4008 19.1988 25.0389 19.4844C25.9499 20.8737 27.2259 21.3945 28.867 21.0469C29.748 20.789 30.4251 20.2681 30.8983 19.4844C30.5076 19.2369 30.117 18.9896 29.7264 18.7422C29.5476 18.9602 29.3522 19.1686 29.1405 19.3672C29.2253 18.8248 29.3165 18.2779 29.4139 17.7266C30.9081 16.4876 32.5748 16.1882 34.4139 16.8281C35.7548 17.6445 36.6793 18.8033 37.1873 20.3047C38.5608 24.0669 38.04 27.5305 35.6248 30.6953C35.0265 31.3985 34.3364 31.9844 33.5545 32.4531C33.3865 32.5773 33.2043 32.6294 33.0076 32.6094C29.2385 30.3082 25.2801 28.3811 21.1326 26.8281C20.1572 26.4931 19.1676 26.2066 18.1639 25.9687C17.7631 23.3372 18.2449 20.8762 19.6092 18.5859C20.319 17.4966 21.2956 16.7934 22.5389 16.4766ZM3.32014 17.1797C6.86181 17.1797 10.4035 17.1797 13.9451 17.1797C13.9712 20.1229 13.9451 23.0655 13.867 26.0078C13.3095 26.24 12.8277 26.5785 12.4217 27.0234C12.1332 25.1682 11.5342 23.4233 10.6248 21.789C9.59194 20.4396 8.25077 20.0099 6.60139 20.5C5.40452 21.0732 4.87067 22.0237 4.99983 23.3515C5.0706 23.9805 5.26591 24.5665 5.58577 25.1094C5.09461 25.0812 4.59982 25.0421 4.10139 24.9922C3.83931 25.0097 3.57889 25.0357 3.32014 25.0703C3.32014 22.4401 3.32014 19.8099 3.32014 17.1797ZM7.46077 21.7109C8.446 21.6168 9.16217 22.0074 9.6092 22.8828C10.5592 24.8339 11.1061 26.8912 11.2498 29.0547C11.0415 29.7838 10.8332 30.513 10.6248 31.2422C9.40436 32.8534 7.95905 34.2206 6.28889 35.3437C5.19994 36.097 4.19734 36.0058 3.28108 35.0703C2.94598 34.5276 2.99807 34.0067 3.43733 33.5078C4.22748 32.7674 5.15196 32.2596 6.21077 31.9844C6.52327 31.5937 6.52327 31.2031 6.21077 30.8125C4.94884 30.4807 3.77697 29.9599 2.69514 29.25C1.93036 28.6001 1.81317 27.8579 2.34358 27.0234C2.85711 26.5831 3.45607 26.3748 4.14045 26.3984C5.18228 26.5125 6.21093 26.6948 7.22639 26.9453C7.86108 26.8943 8.08241 26.5557 7.89045 25.9297C7.11015 25.0966 6.60234 24.1201 6.36702 23C6.41377 22.2899 6.77834 21.8602 7.46077 21.7109ZM15.117 27.1015C15.7977 27.0819 16.4748 27.1209 17.1483 27.2187C18.0702 27.4037 18.9817 27.625 19.8826 27.8828C19.3753 29.8085 18.8284 31.7226 18.242 33.625C18.6933 33.8161 19.1621 33.9593 19.6483 34.0547C20.1851 32.1837 20.706 30.3087 21.2108 28.4297C24.9694 29.8403 28.5631 31.5851 31.992 33.664C32.0804 33.787 32.0934 33.9173 32.0311 34.0547C31.799 34.7489 31.6037 35.452 31.4451 36.164C31.9139 36.2682 32.3826 36.3724 32.8514 36.4765C32.9961 35.8208 33.1653 35.1698 33.3592 34.5234C34.3383 35.1635 35.2497 35.8927 36.0936 36.7109C36.2932 36.9673 36.4625 37.2407 36.6014 37.5312C36.1419 37.8811 35.621 38.0894 35.0389 38.1562C33.7701 38.3436 32.494 38.4348 31.2108 38.4297C29.28 38.3883 27.3529 38.2842 25.4295 38.1172C25.5983 37.3634 25.8066 36.6212 26.0545 35.8906C25.5996 35.6988 25.1308 35.5556 24.6483 35.4609C24.4515 36.2476 24.2302 37.0289 23.9842 37.8047C20.6995 37.632 17.5094 36.968 14.4139 35.8125C12.0444 34.8281 11.3283 33.1224 12.2655 30.6953C12.4901 29.734 12.8808 28.8486 13.4373 28.039C13.907 27.5506 14.4669 27.2381 15.117 27.1015Z" fill="#218A8B"/>
<path opacity="0.934" fill-rule="evenodd" clip-rule="evenodd" d="M31.5234 9.05469C32.6555 9.07141 33.58 9.51414 34.2969 10.3828C34.4661 10.6041 34.5833 10.8516 34.6484 11.125C34.0651 12.4335 33.0495 13.1237 31.6016 13.1953C30.1513 13.1228 29.1357 12.4327 28.5547 11.125C29.1265 9.83719 30.1161 9.14711 31.5234 9.05469ZM31.0547 10.5391C31.8173 10.391 32.4684 10.5863 33.0078 11.125C32.0703 12.0104 31.1328 12.0104 30.1953 11.125C30.4545 10.877 30.741 10.6816 31.0547 10.5391Z" fill="#218A8B"/>
</svg>
